<svg id="Layer_5" enable-background="new 0 0 64 64" height="512" viewBox="0 0 64 64" width="512" xmlns="http://www.w3.org/2000/svg"><g><g><g><path d="m32 2c1.66 0 3 1.34 3 3 0 .78-.3 1.48-.78 2.01-.54.61-1.34.99-2.22.99-.8 0-1.52-.31-2.05-.82-.59-.54-.95-1.32-.95-2.18 0-1.66 1.34-3 3-3z" fill="#ff826e"/></g><g><path d="m46 15c0 1.66-1.34 3-3 3s-3-1.34-3-3c0-.78.3-1.48.78-2.01.54-.61 1.34-.99 2.22-.99 1.14 0 2.13.63 2.64 1.57.23.42.36.91.36 1.43z" fill="#ff826e"/></g><g><path d="m50.71 10.84c-.45-.84-.71-1.81-.71-2.84 0-3.31 2.69-6 6-6s6 2.69 6 6-2.69 6-6 6c-2.28 0-4.27-1.28-5.29-3.16z" fill="#fc6e51"/></g><g><circle cx="56" cy="8" fill="#ff826e" r="2"/></g><g><path d="m50 54.2v3.8h-20c0 1.1-.45 2.1-1.17 2.83-.73.72-1.73 1.17-2.83 1.17s-2.1-.45-2.83-1.17c-.72-.73-1.17-1.73-1.17-2.83h-20v-28h4v16 8h16c2.21 0 4-1.79 4-4 0 2.21 1.79 4 4 4h12c2.29 0 4.43-.64 6.25-1.75z" fill="#5cd6b3"/></g><g><path d="m27.31 26c-.24.7-.55 1.37-.92 2.01-.12.21-.25.42-.39.62v.01s-.06.59-.16.23c-2.17 3.1-5.77 5.13-9.84 5.13-4.17 0-7.85-2.13-10-5.36v1.36 16 8h16c2.21 0 4-1.79 4-4 0 2.21 1.79 4 4 4h12c-6.63 0-12-5.37-12-12s5.37-12 12-12c1.4 0 2.75.24 4 .69v-4.69z" fill="#e6e9ed"/></g><g><circle cx="16" cy="22" fill="#4fc1e9" r="12"/></g><g><path d="m10 38h12v4h-12z" fill="#ff826e"/></g><g><path d="m60.85 55.97c.73.66 1.15 1.59 1.15 2.57 0 .96-.39 1.82-1.01 2.45-.63.62-1.49 1.01-2.45 1.01-.98 0-1.91-.42-2.57-1.15l-5.97-6.65-1.75-1.95c1.63-1 3-2.37 4-4z" fill="#969faa"/></g><g><path d="m52.25 48.25c-1 1.63-2.37 3-4 4-1.82 1.11-3.96 1.75-6.25 1.75-6.63 0-12-5.37-12-12s5.37-12 12-12c1.4 0 2.75.24 4 .69 4.66 1.64 8 6.08 8 11.31 0 2.29-.64 4.43-1.75 6.25z" fill="#fcd770"/></g><g><circle cx="42" cy="42" fill="#69d6f4" r="8"/></g></g><g><path d="m33 42c0 4.963 4.037 9 9 9s9-4.037 9-9-4.037-9-9-9-9 4.037-9 9zm16 0c0 3.859-3.141 7-7 7s-7-3.141-7-7 3.141-7 7-7 7 3.141 7 7z"/><path d="m45 41h2v2h-2z"/><path d="m41 41h2v2h-2z"/><path d="m37 41h2v2h-2z"/><path d="m53.505 48.032c.951-1.805 1.495-3.855 1.495-6.032 0-5.397-3.307-10.034-8-11.997v-5.003h-18.363c.229-.965.363-1.966.363-3 0-3.366-1.297-6.427-3.403-8.738l4.491-4.771c.571.314 1.216.509 1.912.509.808 0 1.559-.245 2.188-.659l5.287 4.807c-.293.557-.475 1.18-.475 1.852 0 2.206 1.794 4 4 4s4-1.794 4-4c0-.329-.051-.643-.126-.949l3.51-1.89c1.277 1.718 3.316 2.839 5.616 2.839 3.859 0 7-3.141 7-7s-3.141-7-7-7-7 3.141-7 7c0 .844.158 1.65.433 2.4l-3.509 1.89c-.731-.789-1.767-1.29-2.924-1.29-.809 0-1.559.245-2.189.659l-5.287-4.807c.294-.556.476-1.18.476-1.852 0-2.206-1.794-4-4-4s-4 1.794-4 4c0 .783.235 1.509.625 2.127l-4.479 4.757c-2.231-1.8-5.063-2.884-8.146-2.884-7.168 0-13 5.832-13 13 0 2.535.74 4.894 2 6.896v.104h-4v30h20.101c.465 2.279 2.484 4 4.899 4s4.435-1.721 4.899-4h20.101v-2.188l4.225 4.706c.843.942 2.052 1.482 3.318 1.482 2.458 0 4.457-1.999 4.457-4.457 0-1.266-.54-2.475-1.48-3.317zm2.495-45.032c2.757 0 5 2.243 5 5s-2.243 5-5 5-5-2.243-5-5 2.243-5 5-5zm-3 39c0 6.065-4.935 11-11 11s-11-4.935-11-11 4.935-11 11-11 11 4.935 11 11zm-8-15v2.363c-.965-.229-1.966-.363-3-.363-7.168 0-13 5.832-13 13 0 4.633 2.445 8.697 6.104 11h-5.104c-1.654 0-3-1.346-3-3v-20-1.104c.379-.603.719-1.232.997-1.896zm-29-16c1.075 0 2.22 1.527 3.009 4h-6.019c.79-2.473 1.935-4 3.01-4zm-3.009 18h6.019c-.789 2.473-1.935 4-3.009 4s-2.221-1.527-3.01-4zm-.705 3.341c-1.874-.676-3.518-1.834-4.765-3.341h3.373c.369 1.295.838 2.422 1.392 3.341zm.195-5.341c-.244-1.209-.408-2.553-.46-4h7.958c-.052 1.447-.217 2.791-.46 4zm8.624 2h3.373c-1.246 1.507-2.891 2.665-4.764 3.341.554-.919 1.023-2.046 1.391-3.341zm4.681-2h-4.216c.225-1.237.363-2.581.409-4h4.971c-.13 1.43-.538 2.779-1.164 4zm-3.808-6c-.046-1.419-.184-2.763-.409-4h4.216c.626 1.221 1.034 2.57 1.164 4zm-.873-6c-.368-1.295-.837-2.422-1.391-3.341 1.874.675 3.518 1.834 4.764 3.341zm-1.586 2c.244 1.209.408 2.553.46 4h-7.958c.052-1.447.217-2.791.46-4zm-9.497 4h-4.971c.13-1.43.537-2.779 1.164-4h4.216c-.225 1.237-.364 2.581-.409 4zm0 2c.046 1.419.184 2.763.409 4h-4.217c-.626-1.221-1.034-2.57-1.164-4zm-3.022 8.359c2.338 2.249 5.507 3.641 9 3.641s6.662-1.392 9-3.641v18.641c0 1.654-1.346 3-3 3h-15zm36-18.359c1.103 0 2 .897 2 2s-.897 2-2 2-2-.897-2-2 .897-2 2-2zm-11-10c1.103 0 2 .897 2 2s-.897 2-2 2-2-.897-2-2 .897-2 2-2zm-19.714 8.659c-.553.919-1.023 2.046-1.391 3.341h-3.374c1.247-1.507 2.891-2.665 4.765-3.341zm36.714 45.341h-20v1c0 1.654-1.346 3-3 3s-3-1.346-3-3v-1h-20v-26h2v24h17c1.641 0 3.088-.806 4-2.031.912 1.225 2.359 2.031 4 2.031h12c2.177 0 4.227-.544 6.032-1.495l.968 1.079zm9.543 4c-.697 0-1.364-.297-1.829-.816l-6.971-7.766c1.017-.758 1.917-1.658 2.675-2.675l7.767 6.972c.518.464.815 1.131.815 1.828 0 1.354-1.103 2.457-2.457 2.457z"/><circle cx="58" cy="58" r="1"/><path d="m56 11c1.654 0 3-1.346 3-3s-1.346-3-3-3-3 1.346-3 3 1.346 3 3 3zm0-4c.552 0 1 .448 1 1s-.448 1-1 1-1-.448-1-1 .448-1 1-1z"/><path d="m23 37h-14v6h14zm-2 4h-10v-2h10z"/><path d="m9 45h14v2h-14z"/><path d="m21 49h2v2h-2z"/><path d="m9 49h10v2h-10z"/></g></g></svg>